Coordinates
version=1
nRows=33
nColumns=21
inDegrees=yes

Units are S.I. units (second, meters, Newtons, ...)
If the header above contains a line with 'inDegrees', this indicates whether rotational values are in degrees (yes) or radians (no).

endheader
time	sternoclavicular_r2	sternoclavicular_r3	unrotscap_r3	unrotscap_r2	acromioclavicular_r2	acromioclavicular_r3	acromioclavicular_r1	unrothum_r1	unrothum_r3	unrothum_r2	elv_angle	shoulder_elev	shoulder1_r2	shoulder_rot	elbow_flexion	pro_sup	deviation	flexion	wrist_hand_r1	wrist_hand_r3
      2.01005025	     -2.80852349	      1.18955799	     -1.18955799	      2.80852349	     -0.56866888	      4.59578183	      2.06577230	     -2.06577230	     -4.59578183	      0.56866888	     69.93578924	     11.60544295	    -69.93578924	      8.90034679	     58.01882527	     81.16156628	      0.00000000	     -0.00000000	     -0.00000000	      0.00000000
      2.03015075	     -2.80852349	      1.18955799	     -1.18955799	      2.80852349	     -0.56866888	      4.59578183	      2.06577230	     -2.06577230	     -4.59578183	      0.56866888	     69.93578924	     11.60544295	    -69.93578924	      8.90034679	     58.44105574	     81.08845459	      0.00000000	     -0.00000000	     -0.00000000	      0.00000000
      2.05025126	     -2.80852349	      1.18955799	     -1.18955799	      2.80852349	     -0.56866888	      4.59578183	      2.06577230	     -2.06577230	     -4.59578183	      0.56866888	     69.93578924	     11.60544295	    -69.93578924	      8.90034679	     58.88047114	     81.15969609	      0.00000000	     -0.00000000	     -0.00000000	      0.00000000
      2.07035176	     -2.80852349	      1.18955799	     -1.18955799	      2.80852349	     -0.56866888	      4.59578183	      2.06577230	     -2.06577230	     -4.59578183	      0.56866888	     69.93578924	     11.60544295	    -69.93578924	      8.90034679	     59.30868171	     81.08554969	      0.00000000	     -0.00000000	     -0.00000000	      0.00000000
      2.09045226	     -2.80852349	      1.18955799	     -1.18955799	      2.80852349	     -0.56866888	      4.59578183	      2.06577230	     -2.06577230	     -4.59578183	      0.56866888	     69.93578924	     11.60544295	    -69.93578924	      8.90034679	     59.75369500	     81.15784475	      0.00000000	     -0.00000000	     -0.00000000	      0.00000000
      2.11055276	     -2.80852349	      1.18955799	     -1.18955799	      2.80852349	     -0.56866888	      4.59578183	      2.06577230	     -2.06577230	     -4.59578183	      0.56866888	     69.93578924	     11.60544295	    -69.93578924	      8.90034679	     60.18708900	     81.08280034	      0.00000000	     -0.00000000	     -0.00000000	      0.00000000
      2.13065327	     -2.80852349	      1.18955799	     -1.18955799	      2.80852349	     -0.56866888	      4.59578183	      2.06577230	     -2.06577230	     -4.59578183	      0.56866888	     69.93578924	     11.60544295	    -69.93578924	      8.90034679	     60.63687457	     81.15602712	      0.00000000	     -0.00000000	     -0.00000000	      0.00000000
      2.15075377	     -2.80852349	      1.18955799	     -1.18955799	      2.80852349	     -0.56866888	      4.59578183	      2.06577230	     -2.06577230	     -4.59578183	      0.56866888	     69.93578924	     11.60544295	    -69.93578924	      8.90034679	     61.07460691	     81.08022583	      0.00000000	     -0.00000000	     -0.00000000	      0.00000000
      2.17085427	     -2.80852349	      1.18955799	     -1.18955799	      2.80852349	     -0.56866888	      4.59578183	      2.06577230	     -2.06577230	     -4.59578183	      0.56866888	     69.93578924	     11.60544295	    -69.93578924	      8.90034679	     61.52828874	     81.15425507	      0.00000000	     -0.00000000	     -0.00000000	      0.00000000
      2.19095477	     -2.80852349	      1.18955799	     -1.18955799	      2.80852349	     -0.56866888	      4.59578183	      2.06577230	     -2.06577230	     -4.59578183	      0.56866888	     69.93578924	     11.60544295	    -69.93578924	      8.90034679	     61.96946917	     81.07784249	      0.00000000	     -0.00000000	     -0.00000000	      0.00000000
      2.21105528	     -2.80852349	      1.18955799	     -1.18955799	      2.80852349	     -0.56866888	      4.59578183	      2.06577230	     -2.06577230	     -4.59578183	      0.56866888	     69.93578924	     11.60544295	    -69.93578924	      8.90034679	     62.42612499	     81.15253795	      0.00000000	     -0.00000000	     -0.00000000	      0.00000000
      2.23115578	     -2.80852349	      1.18955799	     -1.18955799	      2.80852349	     -0.56866888	      4.59578183	      2.06577230	     -2.06577230	     -4.59578183	      0.56866888	     69.93578924	     11.60544295	    -69.93578924	      8.90034679	     62.86982205	     81.07566401	      0.00000000	     -0.00000000	     -0.00000000	      0.00000000
      2.25125628	     -2.80852349	      1.18955799	     -1.18955799	      2.80852349	     -0.56866888	      4.59578183	      2.06577230	     -2.06577230	     -4.59578183	      0.56866888	     69.93578924	     11.60544295	    -69.93578924	      8.90034679	     63.32848817	     81.15088320	      0.00000000	     -0.00000000	     -0.00000000	      0.00000000
      2.27135678	     -2.80852349	      1.18955799	     -1.18955799	      2.80852349	     -0.56866888	      4.59578183	      2.06577230	     -2.06577230	     -4.59578183	      0.56866888	     69.93578924	     11.60544295	    -69.93578924	      8.90034679	     63.77373404	     81.07370185	      0.00000000	     -0.00000000	     -0.00000000	      0.00000000
      2.29145729	     -2.80852349	      1.18955799	     -1.18955799	      2.80852349	     -0.56866888	      4.59578183	      2.06577230	     -2.06577230	     -4.59578183	      0.56866888	     69.93578924	     11.60544295	    -69.93578924	      8.90034679	     64.23341085	     81.14929662	      0.00000000	     -0.00000000	     -0.00000000	      0.00000000
      2.31155779	     -2.80852349	      1.18955799	     -1.18955799	      2.80852349	     -0.56866888	      4.59578183	      2.06577230	     -2.06577230	     -4.59578183	      0.56866888	     69.93578924	     11.60544295	    -69.93578924	      8.90034679	     64.67920682	     81.07196540	      0.00000000	     -0.00000000	     -0.00000000	      0.00000000
      2.33165829	     -2.80852349	      1.18955799	     -1.18955799	      2.80852349	     -0.56866888	      4.59578183	      2.06577230	     -2.06577230	     -4.59578183	      0.56866888	     69.93578924	     11.60544295	    -69.93578924	      8.90034679	     65.13886490	     81.14778266	      0.00000000	     -0.00000000	     -0.00000000	      0.00000000
      2.35175879	     -2.80852349	      1.18955799	     -1.18955799	      2.80852349	     -0.56866888	      4.59578183	      2.06577230	     -2.06577230	     -4.59578183	      0.56866888	     69.93578924	     11.60544295	    -69.93578924	      8.90034679	     65.58418756	     81.07046215	      0.00000000	     -0.00000000	     -0.00000000	      0.00000000
      2.37185930	     -2.80852349	      1.18955799	     -1.18955799	      2.80852349	     -0.56866888	      4.59578183	      2.06577230	     -2.06577230	     -4.59578183	      0.56866888	     69.93578924	     11.60544295	    -69.93578924	      8.90034679	     66.04277443	     81.14634460	      0.00000000	     -0.00000000	     -0.00000000	      0.00000000
      2.39195980	     -2.80852349	      1.18955799	     -1.18955799	      2.80852349	     -0.56866888	      4.59578183	      2.06577230	     -2.06577230	     -4.59578183	      0.56866888	     69.93578924	     11.60544295	    -69.93578924	      8.90034679	     66.48658230	     81.06919775	      0.00000000	     -0.00000000	     -0.00000000	      0.00000000
      2.41206030	     -2.80852349	      1.18955799	     -1.18955799	      2.80852349	     -0.56866888	      4.59578183	      2.06577230	     -2.06577230	     -4.59578183	      0.56866888	     69.93578924	     11.60544295	    -69.93578924	      8.90034679	     66.94302952	     81.14498470	      0.00000000	     -0.00000000	     -0.00000000	      0.00000000
      2.43216080	     -2.80852349	      1.18955799	     -1.18955799	      2.80852349	     -0.56866888	      4.59578183	      2.06577230	     -2.06577230	     -4.59578183	      0.56866888	     69.93578924	     11.60544295	    -69.93578924	      8.90034679	     67.38427018	     81.06817612	      0.00000000	     -0.00000000	     -0.00000000	      0.00000000
      2.45226131	     -2.80852349	      1.18955799	     -1.18955799	      2.80852349	     -0.56866888	      4.59578183	      2.06577230	     -2.06577230	     -4.59578183	      0.56866888	     69.93578924	     11.60544295	    -69.93578924	      8.90034679	     67.83750089	     81.14370429	      0.00000000	     -0.00000000	     -0.00000000	      0.00000000
      2.47236181	     -2.80852349	      1.18955799	     -1.18955799	      2.80852349	     -0.56866888	      4.59578183	      2.06577230	     -2.06577230	     -4.59578183	      0.56866888	     69.93578924	     11.60544295	    -69.93578924	      8.90034679	     68.27511836	     81.06739945	      0.00000000	     -0.00000000	     -0.00000000	      0.00000000
      2.49246231	     -2.80852349	      1.18955799	     -1.18955799	      2.80852349	     -0.56866888	      4.59578183	      2.06577230	     -2.06577230	     -4.59578183	      0.56866888	     69.93578924	     11.60544295	    -69.93578924	      8.90034679	     68.72405504	     81.14250392	      0.00000000	     -0.00000000	     -0.00000000	      0.00000000
      2.51256281	     -2.80852349	      1.18955799	     -1.18955799	      2.80852349	     -0.56866888	      4.59578183	      2.06577230	     -2.06577230	     -4.59578183	      0.56866888	     69.93578924	     11.60544295	    -69.93578924	      8.90034679	     69.15699736	     81.06686833	      0.00000000	     -0.00000000	     -0.00000000	      0.00000000
      2.53266332	     -2.80852349	      1.18955799	     -1.18955799	      2.80852349	     -0.56866888	      4.59578183	      2.06577230	     -2.06577230	     -4.59578183	      0.56866888	     69.93578924	     11.60544295	    -69.93578924	      8.90034679	     69.60056961	     81.14138344	      0.00000000	     -0.00000000	     -0.00000000	      0.00000000
      2.55276382	     -2.80852349	      1.18955799	     -1.18955799	      2.80852349	     -0.56866888	      4.59578183	      2.06577230	     -2.06577230	     -4.59578183	      0.56866888	     69.93578924	     11.60544295	    -69.93578924	      8.90034679	     70.03082898	     81.13433649	      0.00000000	     -0.00000000	     -0.00000000	      0.00000000
      2.57286432	     -2.80852349	      1.18955799	     -1.18955799	      2.80852349	     -0.56866888	      4.59578183	      2.06577230	     -2.06577230	     -4.59578183	      0.56866888	     69.93578924	     11.60544295	    -69.93578924	      8.90034679	     70.46010725	     81.11785476	      0.00000000	     -0.00000000	     -0.00000000	      0.00000000
      2.59296482	     -2.80852349	      1.18955799	     -1.18955799	      2.80852349	     -0.56866888	      4.59578183	      2.06577230	     -2.06577230	     -4.59578183	      0.56866888	     69.93578924	     11.60544295	    -69.93578924	      8.90034679	     70.88546787	     81.09627933	      0.00000000	     -0.00000000	     -0.00000000	      0.00000000
      2.61306533	     -2.80852349	      1.18955799	     -1.18955799	      2.80852349	     -0.56866888	      4.59578183	      2.06577230	     -2.06577230	     -4.59578183	      0.56866888	     69.93578924	     11.60544295	    -69.93578924	      8.90034679	     71.30688203	     81.07277518	      0.00000000	     -0.00000000	     -0.00000000	      0.00000000
      2.63316583	     -2.80852349	      1.18955799	     -1.18955799	      2.80852349	     -0.56866888	      4.59578183	      2.06577230	     -2.06577230	     -4.59578183	      0.56866888	     69.93578924	     11.60544295	    -69.93578924	      8.90034679	     71.72423806	     81.04920372	      0.00000000	     -0.00000000	     -0.00000000	      0.00000000
      2.65326633	     -2.80852349	      1.18955799	     -1.18955799	      2.80852349	     -0.56866888	      4.59578183	      2.06577230	     -2.06577230	     -4.59578183	      0.56866888	     69.93578924	     11.60544295	    -69.93578924	      8.90034679	     72.15005615	     81.13426017	      0.00000000	     -0.00000000	     -0.00000000	      0.00000000
